<svg width="20" height="20" viewBox="0 0 20 20" fill="none" xmlns="http://www.w3.org/2000/svg">
<path d="M5.58909 4.4107C5.26366 4.08527 4.73602 4.08527 4.41058 4.4107C4.08514 4.73614 4.08514 5.26378 4.41058 5.58921L8.82134 9.99997L4.41061 14.4107C4.08517 14.7361 4.08517 15.2638 4.41061 15.5892C4.73604 15.9147 5.26368 15.9147 5.58912 15.5892L9.99985 11.1785L14.4106 15.5892C14.736 15.9147 15.2637 15.9147 15.5891 15.5892C15.9145 15.2638 15.9145 14.7361 15.5891 14.4107L11.1784 9.99997L15.5891 5.58922C15.9146 5.26378 15.9146 4.73614 15.5891 4.4107C15.2637 4.08527 14.736 4.08527 14.4106 4.4107L9.99985 8.82146L5.58909 4.4107Z" fill="#33383F"/>
</svg>
